<svg viewBox="0 0 200 200" xmlns="http://www.w3.org/2000/svg">
  <defs>
    <!-- Main gradient -->
    <linearGradient id="mainGradient" x1="0%" y1="0%" x2="100%" y2="100%">
      <stop offset="0%" style="stop-color:#1e3a8a;stop-opacity:1" />
      <stop offset="50%" style="stop-color:#3730a3;stop-opacity:1" />
      <stop offset="100%" style="stop-color:#10b981;stop-opacity:1" />
    </linearGradient>
    
    <!-- Accent gradient -->
    <linearGradient id="accentGradient" x1="0%" y1="0%" x2="100%" y2="100%">
      <stop offset="0%" style="stop-color:#10b981;stop-opacity:1" />
      <stop offset="100%" style="stop-color:#06d6a0;stop-opacity:1" />
    </linearGradient>
    
    <!-- Glow effect -->
    <filter id="glow">
      <feGaussianBlur stdDeviation="3" result="coloredBlur"/>
      <feMerge> 
        <feMergeNode in="coloredBlur"/>
        <feMergeNode in="SourceGraphic"/>
      </feMerge>
    </filter>
  </defs>
  
  <!-- Background circle for containment -->
  <circle cx="100" cy="100" r="95" fill="none" stroke="url(#mainGradient)" stroke-width="2" opacity="0.3"/>
  
  <!-- Central diamond/arena -->
  <path d="M100 40 L140 100 L100 160 L60 100 Z" 
        fill="none" 
        stroke="url(#mainGradient)" 
        stroke-width="3" 
        filter="url(#glow)"/>
  
  <!-- Left player icon -->
  <g transform="translate(45, 85)">
    <!-- Head -->
    <circle cx="0" cy="0" r="8" fill="url(#mainGradient)"/>
    <!-- Body -->
    <rect x="-4" y="8" width="8" height="12" rx="2" fill="url(#mainGradient)"/>
    <!-- Arms pointing right -->
    <rect x="4" y="10" width="12" height="3" rx="1.5" fill="url(#accentGradient)"/>
    <!-- Legs -->
    <rect x="-3" y="20" width="2.5" height="8" rx="1" fill="url(#mainGradient)"/>
    <rect x="0.5" y="20" width="2.5" height="8" rx="1" fill="url(#mainGradient)"/>
  </g>
  
  <!-- Right player icon -->
  <g transform="translate(155, 85)">
    <!-- Head -->
    <circle cx="0" cy="0" r="8" fill="url(#mainGradient)"/>
    <!-- Body -->
    <rect x="-4" y="8" width="8" height="12" rx="2" fill="url(#mainGradient)"/>
    <!-- Arms pointing left -->
    <rect x="-16" y="10" width="12" height="3" rx="1.5" fill="url(#accentGradient)"/>
    <!-- Legs -->
    <rect x="-3" y="20" width="2.5" height="8" rx="1" fill="url(#mainGradient)"/>
    <rect x="0.5" y="20" width="2.5" height="8" rx="1" fill="url(#mainGradient)"/>
  </g>
  
  <!-- Dynamic energy lines -->
  <path d="M70 100 L85 95 L85 105 Z" fill="url(#accentGradient)" opacity="0.8"/>
  <path d="M130 100 L115 95 L115 105 Z" fill="url(#accentGradient)" opacity="0.8"/>
  
  <!-- Central energy burst -->
  <circle cx="100" cy="100" r="6" fill="url(#accentGradient)" filter="url(#glow)"/>
  <circle cx="100" cy="100" r="3" fill="#ffffff" opacity="0.9"/>
  
  <!-- Subtle motion lines -->
  <path d="M100 70 L100 50" stroke="url(#accentGradient)" stroke-width="2" opacity="0.6" stroke-linecap="round"/>
  <path d="M100 130 L100 150" stroke="url(#accentGradient)" stroke-width="2" opacity="0.6" stroke-linecap="round"/>
  <path d="M130 100 L150 100" stroke="url(#accentGradient)" stroke-width="2" opacity="0.6" stroke-linecap="round"/>
  <path d="M70 100 L50 100" stroke="url(#accentGradient)" stroke-width="2" opacity="0.6" stroke-linecap="round"/>
</svg>